<mxfile host="app.diagrams.net" agent="Mozilla/5.0 (Macintosh; Intel Mac OS X 10_15_7) AppleWebKit/537.36 (KHTML, like Gecko) Chrome/134.0.0.0 Safari/537.36" version="26.1.0">
  <diagram id="YtgMAGsW0VO4MVRInVbT" name="第 1 页">
    <mxGraphModel dx="3585" dy="1903" grid="1" gridSize="10" guides="1" tooltips="1" connect="1" arrows="1" fold="1" page="1" pageScale="1" pageWidth="827" pageHeight="1169" math="1" shadow="0">
      <root>
        <mxCell id="0" />
        <mxCell id="1" parent="0" />
        <mxCell id="61rVummgE9tPWi6S5vcb-69" value="" style="rounded=0;whiteSpace=wrap;html=1;fillColor=none;strokeWidth=2;dashed=1;" parent="1" vertex="1">
          <mxGeometry x="1100" y="815" width="320" height="190" as="geometry" />
        </mxCell>
        <mxCell id="61rVummgE9tPWi6S5vcb-9" style="edgeStyle=orthogonalEdgeStyle;rounded=0;orthogonalLoop=1;jettySize=auto;html=1;exitX=1;exitY=1;exitDx=0;exitDy=0;entryX=0;entryY=0;entryDx=0;entryDy=0;strokeWidth=2;dashed=1;" parent="1" source="2" target="61rVummgE9tPWi6S5vcb-3" edge="1">
          <mxGeometry relative="1" as="geometry" />
        </mxCell>
        <mxCell id="61rVummgE9tPWi6S5vcb-24" value="&lt;font style=&quot;font-size: 24px;&quot; face=&quot;宋体&quot;&gt;中断&lt;/font&gt;" style="edgeLabel;html=1;align=center;verticalAlign=middle;resizable=0;points=[];" parent="61rVummgE9tPWi6S5vcb-9" vertex="1" connectable="0">
          <mxGeometry x="-0.1" relative="1" as="geometry">
            <mxPoint x="30" as="offset" />
          </mxGeometry>
        </mxCell>
        <mxCell id="2" value="&lt;font face=&quot;宋体&quot; style=&quot;font-size: 24px;&quot;&gt;\(prev\)&lt;/font&gt;" style="rounded=0;whiteSpace=wrap;html=1;strokeWidth=2;strokeColor=default;align=center;verticalAlign=middle;fontFamily=Helvetica;fontSize=12;fontColor=default;fillColor=default;" parent="1" vertex="1">
          <mxGeometry x="160" y="180" width="120" height="60" as="geometry" />
        </mxCell>
        <mxCell id="61rVummgE9tPWi6S5vcb-3" value="&lt;font face=&quot;宋体&quot; style=&quot;font-size: 24px;&quot;&gt;保存&lt;/font&gt;&lt;div&gt;&lt;font face=&quot;宋体&quot;&gt;&lt;font style=&quot;font-size: 24px;&quot;&gt;\(prev\)&lt;/font&gt;&lt;span style=&quot;font-size: 24px; background-color: transparent; color: light-dark(rgb(0, 0, 0), rgb(255, 255, 255));&quot;&gt;上下文&lt;/span&gt;&lt;/font&gt;&lt;/div&gt;" style="rounded=0;whiteSpace=wrap;html=1;strokeWidth=2;" parent="1" vertex="1">
          <mxGeometry x="280" y="280" width="160" height="60" as="geometry" />
        </mxCell>
        <mxCell id="61rVummgE9tPWi6S5vcb-4" value="&lt;font face=&quot;宋体&quot; style=&quot;font-size: 24px;&quot;&gt;唤醒任务\(next\)/&lt;/font&gt;&lt;div&gt;&lt;font face=&quot;宋体&quot; style=&quot;font-size: 24px;&quot;&gt;中断上半段&lt;/font&gt;&lt;/div&gt;" style="rounded=0;whiteSpace=wrap;html=1;strokeWidth=2;" parent="1" vertex="1">
          <mxGeometry x="440" y="280" width="220" height="60" as="geometry" />
        </mxCell>
        <mxCell id="61rVummgE9tPWi6S5vcb-8" style="edgeStyle=orthogonalEdgeStyle;rounded=0;orthogonalLoop=1;jettySize=auto;html=1;exitX=1;exitY=0;exitDx=0;exitDy=0;entryX=0;entryY=1;entryDx=0;entryDy=0;strokeWidth=2;dashed=1;" parent="1" source="61rVummgE9tPWi6S5vcb-5" target="61rVummgE9tPWi6S5vcb-6" edge="1">
          <mxGeometry relative="1" as="geometry" />
        </mxCell>
        <mxCell id="61rVummgE9tPWi6S5vcb-5" value="&lt;font face=&quot;宋体&quot; style=&quot;font-size: 24px;&quot;&gt;恢复&lt;/font&gt;&lt;div&gt;&lt;font face=&quot;宋体&quot; style=&quot;font-size: 24px;&quot;&gt;\(prev\)上下文&lt;/font&gt;&lt;/div&gt;" style="rounded=0;whiteSpace=wrap;html=1;strokeWidth=2;" parent="1" vertex="1">
          <mxGeometry x="660" y="280" width="160" height="60" as="geometry" />
        </mxCell>
        <mxCell id="61rVummgE9tPWi6S5vcb-6" value="&lt;span style=&quot;font-family: 宋体; font-size: 24px;&quot;&gt;\(prev\)&lt;/span&gt;" style="rounded=0;whiteSpace=wrap;html=1;strokeWidth=2;" parent="1" vertex="1">
          <mxGeometry x="820" y="180" width="280" height="60" as="geometry" />
        </mxCell>
        <mxCell id="61rVummgE9tPWi6S5vcb-11" value="&lt;span style=&quot;font-family: 宋体; font-size: 24px;&quot;&gt;\(prev\)&lt;/span&gt;" style="rounded=0;whiteSpace=wrap;html=1;strokeWidth=2;" parent="1" vertex="1">
          <mxGeometry x="160" y="380" width="400" height="60" as="geometry" />
        </mxCell>
        <mxCell id="61rVummgE9tPWi6S5vcb-18" value="&lt;font face=&quot;宋体&quot; style=&quot;font-size: 24px;&quot;&gt;硬件&lt;/font&gt;&lt;span style=&quot;font-size: 24px; font-family: 宋体; background-color: transparent; color: light-dark(rgb(0, 0, 0), rgb(255, 255, 255));&quot;&gt;唤醒&lt;/span&gt;&lt;div&gt;&lt;span style=&quot;font-size: 24px; font-family: 宋体; background-color: transparent; color: light-dark(rgb(0, 0, 0), rgb(255, 255, 255));&quot;&gt;任务\(next\)&lt;/span&gt;&lt;/div&gt;" style="rounded=0;whiteSpace=wrap;html=1;strokeWidth=2;" parent="1" vertex="1">
          <mxGeometry x="280" y="480" width="120" height="60" as="geometry" />
        </mxCell>
        <mxCell id="61rVummgE9tPWi6S5vcb-22" value="&lt;font face=&quot;宋体&quot; style=&quot;font-size: 24px;&quot;&gt;\(next\)&lt;/font&gt;" style="rounded=0;whiteSpace=wrap;html=1;strokeWidth=2;" parent="1" vertex="1">
          <mxGeometry x="1190" y="180" width="280" height="60" as="geometry" />
        </mxCell>
        <mxCell id="61rVummgE9tPWi6S5vcb-23" value="&lt;span style=&quot;font-family: 宋体; font-size: 24px;&quot;&gt;\(next\)&lt;/span&gt;" style="rounded=0;whiteSpace=wrap;html=1;strokeWidth=2;" parent="1" vertex="1">
          <mxGeometry x="650" y="380" width="280" height="60" as="geometry" />
        </mxCell>
        <mxCell id="61rVummgE9tPWi6S5vcb-25" style="edgeStyle=orthogonalEdgeStyle;rounded=0;orthogonalLoop=1;jettySize=auto;html=1;exitX=1;exitY=1;exitDx=0;exitDy=0;entryX=0;entryY=0;entryDx=0;entryDy=0;strokeWidth=2;dashed=1;" parent="1" target="61rVummgE9tPWi6S5vcb-18" edge="1">
          <mxGeometry relative="1" as="geometry">
            <mxPoint x="279" y="440" as="sourcePoint" />
            <mxPoint x="279" y="500" as="targetPoint" />
          </mxGeometry>
        </mxCell>
        <mxCell id="61rVummgE9tPWi6S5vcb-26" value="&lt;font style=&quot;font-size: 24px;&quot; face=&quot;宋体&quot;&gt;中断&lt;/font&gt;" style="edgeLabel;html=1;align=center;verticalAlign=middle;resizable=0;points=[];" parent="61rVummgE9tPWi6S5vcb-25" vertex="1" connectable="0">
          <mxGeometry x="-0.1" relative="1" as="geometry">
            <mxPoint x="30" as="offset" />
          </mxGeometry>
        </mxCell>
        <mxCell id="61rVummgE9tPWi6S5vcb-27" value="" style="shape=curlyBracket;whiteSpace=wrap;html=1;rounded=1;flipH=1;labelPosition=right;verticalLabelPosition=middle;align=left;verticalAlign=middle;rotation=-90;strokeWidth=2;" parent="1" vertex="1">
          <mxGeometry x="540" y="-110" width="20" height="540" as="geometry" />
        </mxCell>
        <mxCell id="61rVummgE9tPWi6S5vcb-29" value="&lt;font style=&quot;font-size: 24px;&quot; face=&quot;宋体&quot;&gt;传统中断机制&lt;/font&gt;" style="text;html=1;align=center;verticalAlign=middle;whiteSpace=wrap;rounded=0;" parent="1" vertex="1">
          <mxGeometry x="440" y="110" width="220" height="30" as="geometry" />
        </mxCell>
        <mxCell id="61rVummgE9tPWi6S5vcb-30" style="edgeStyle=orthogonalEdgeStyle;rounded=0;orthogonalLoop=1;jettySize=auto;html=1;exitX=1;exitY=1;exitDx=0;exitDy=0;entryX=0;entryY=0;entryDx=0;entryDy=0;strokeWidth=2;dashed=1;" parent="1" source="61rVummgE9tPWi6S5vcb-32" target="61rVummgE9tPWi6S5vcb-33" edge="1">
          <mxGeometry relative="1" as="geometry" />
        </mxCell>
        <mxCell id="61rVummgE9tPWi6S5vcb-31" value="&lt;font style=&quot;font-size: 24px;&quot; face=&quot;宋体&quot;&gt;中断&lt;/font&gt;" style="edgeLabel;html=1;align=center;verticalAlign=middle;resizable=0;points=[];" parent="61rVummgE9tPWi6S5vcb-30" vertex="1" connectable="0">
          <mxGeometry x="-0.1" relative="1" as="geometry">
            <mxPoint x="30" as="offset" />
          </mxGeometry>
        </mxCell>
        <mxCell id="61rVummgE9tPWi6S5vcb-32" value="&lt;font face=&quot;宋体&quot; style=&quot;font-size: 24px;&quot;&gt;\(prev\)&lt;/font&gt;" style="rounded=0;whiteSpace=wrap;html=1;strokeWidth=2;strokeColor=default;align=center;verticalAlign=middle;fontFamily=Helvetica;fontSize=12;fontColor=default;fillColor=default;" parent="1" vertex="1">
          <mxGeometry x="160" y="580" width="120" height="60" as="geometry" />
        </mxCell>
        <mxCell id="61rVummgE9tPWi6S5vcb-33" value="&lt;font face=&quot;宋体&quot; style=&quot;font-size: 24px;&quot;&gt;保存&lt;/font&gt;&lt;div&gt;&lt;font face=&quot;宋体&quot; style=&quot;font-size: 24px;&quot;&gt;\(prev\)上下文&lt;/font&gt;&lt;/div&gt;" style="rounded=0;whiteSpace=wrap;html=1;strokeWidth=2;" parent="1" vertex="1">
          <mxGeometry x="280" y="680" width="160" height="60" as="geometry" />
        </mxCell>
        <mxCell id="61rVummgE9tPWi6S5vcb-34" value="&lt;font face=&quot;宋体&quot; style=&quot;font-size: 24px;&quot;&gt;唤醒任务\(next\)/&lt;/font&gt;&lt;div&gt;&lt;font face=&quot;宋体&quot; style=&quot;font-size: 24px;&quot;&gt;中断上半段&lt;/font&gt;&lt;/div&gt;" style="rounded=0;whiteSpace=wrap;html=1;strokeWidth=2;" parent="1" vertex="1">
          <mxGeometry x="440" y="680" width="220" height="60" as="geometry" />
        </mxCell>
        <mxCell id="61rVummgE9tPWi6S5vcb-38" value="&lt;span style=&quot;font-family: 宋体; font-size: 24px;&quot;&gt;\(next\)&lt;/span&gt;" style="rounded=0;whiteSpace=wrap;html=1;strokeWidth=2;" parent="1" vertex="1">
          <mxGeometry x="750" y="580" width="280" height="60" as="geometry" />
        </mxCell>
        <mxCell id="61rVummgE9tPWi6S5vcb-41" value="" style="rounded=0;whiteSpace=wrap;html=1;strokeWidth=2;fillColor=#666666;" parent="1" vertex="1">
          <mxGeometry x="1100" y="180" width="90" height="60" as="geometry" />
        </mxCell>
        <mxCell id="61rVummgE9tPWi6S5vcb-42" value="" style="rounded=0;whiteSpace=wrap;html=1;strokeWidth=2;fillColor=#666666;" parent="1" vertex="1">
          <mxGeometry x="560" y="380" width="90" height="60" as="geometry" />
        </mxCell>
        <mxCell id="61rVummgE9tPWi6S5vcb-44" style="edgeStyle=orthogonalEdgeStyle;rounded=0;orthogonalLoop=1;jettySize=auto;html=1;exitX=1;exitY=0;exitDx=0;exitDy=0;entryX=0;entryY=1;entryDx=0;entryDy=0;strokeWidth=2;dashed=1;" parent="1" source="61rVummgE9tPWi6S5vcb-43" target="61rVummgE9tPWi6S5vcb-38" edge="1">
          <mxGeometry relative="1" as="geometry" />
        </mxCell>
        <mxCell id="61rVummgE9tPWi6S5vcb-43" value="" style="rounded=0;whiteSpace=wrap;html=1;strokeWidth=2;fillColor=#666666;" parent="1" vertex="1">
          <mxGeometry x="660" y="680" width="90" height="60" as="geometry" />
        </mxCell>
        <mxCell id="61rVummgE9tPWi6S5vcb-45" style="edgeStyle=orthogonalEdgeStyle;rounded=0;orthogonalLoop=1;jettySize=auto;html=1;exitX=1;exitY=1;exitDx=0;exitDy=0;entryX=0;entryY=0;entryDx=0;entryDy=0;strokeWidth=2;dashed=1;" parent="1" source="61rVummgE9tPWi6S5vcb-47" target="61rVummgE9tPWi6S5vcb-48" edge="1">
          <mxGeometry relative="1" as="geometry" />
        </mxCell>
        <mxCell id="61rVummgE9tPWi6S5vcb-46" value="&lt;font style=&quot;font-size: 24px;&quot; face=&quot;宋体&quot;&gt;中断&lt;/font&gt;" style="edgeLabel;html=1;align=center;verticalAlign=middle;resizable=0;points=[];" parent="61rVummgE9tPWi6S5vcb-45" vertex="1" connectable="0">
          <mxGeometry x="-0.1" relative="1" as="geometry">
            <mxPoint x="30" as="offset" />
          </mxGeometry>
        </mxCell>
        <mxCell id="61rVummgE9tPWi6S5vcb-54" style="edgeStyle=orthogonalEdgeStyle;rounded=0;orthogonalLoop=1;jettySize=auto;html=1;exitX=1;exitY=1;exitDx=0;exitDy=0;entryX=0;entryY=0;entryDx=0;entryDy=0;strokeWidth=2;dashed=1;" parent="1" source="61rVummgE9tPWi6S5vcb-47" target="61rVummgE9tPWi6S5vcb-53" edge="1">
          <mxGeometry relative="1" as="geometry" />
        </mxCell>
        <mxCell id="61rVummgE9tPWi6S5vcb-47" value="&lt;font face=&quot;宋体&quot; style=&quot;font-size: 24px;&quot;&gt;\(prev\)&lt;/font&gt;" style="rounded=0;whiteSpace=wrap;html=1;strokeWidth=2;strokeColor=default;align=center;verticalAlign=middle;fontFamily=Helvetica;fontSize=12;fontColor=default;fillColor=default;" parent="1" vertex="1">
          <mxGeometry x="160" y="780" width="120" height="60" as="geometry" />
        </mxCell>
        <mxCell id="61rVummgE9tPWi6S5vcb-48" value="&lt;font face=&quot;宋体&quot; style=&quot;font-size: 24px;&quot;&gt;保存&lt;/font&gt;&lt;div&gt;&lt;font face=&quot;宋体&quot; style=&quot;font-size: 24px;&quot;&gt;\(prev\)上下文&lt;/font&gt;&lt;/div&gt;" style="rounded=0;whiteSpace=wrap;html=1;strokeWidth=2;" parent="1" vertex="1">
          <mxGeometry x="280" y="880" width="160" height="60" as="geometry" />
        </mxCell>
        <mxCell id="61rVummgE9tPWi6S5vcb-50" value="&lt;span style=&quot;font-family: 宋体; font-size: 24px;&quot;&gt;\(next\)&lt;/span&gt;" style="rounded=0;whiteSpace=wrap;html=1;strokeWidth=2;" parent="1" vertex="1">
          <mxGeometry x="530" y="780" width="280" height="60" as="geometry" />
        </mxCell>
        <mxCell id="61rVummgE9tPWi6S5vcb-51" style="edgeStyle=orthogonalEdgeStyle;rounded=0;orthogonalLoop=1;jettySize=auto;html=1;exitX=1;exitY=0;exitDx=0;exitDy=0;entryX=0;entryY=1;entryDx=0;entryDy=0;strokeWidth=2;dashed=1;" parent="1" source="61rVummgE9tPWi6S5vcb-52" target="61rVummgE9tPWi6S5vcb-50" edge="1">
          <mxGeometry relative="1" as="geometry" />
        </mxCell>
        <mxCell id="61rVummgE9tPWi6S5vcb-52" value="" style="rounded=0;whiteSpace=wrap;html=1;strokeWidth=2;fillColor=#666666;" parent="1" vertex="1">
          <mxGeometry x="440" y="880" width="90" height="60" as="geometry" />
        </mxCell>
        <mxCell id="61rVummgE9tPWi6S5vcb-53" value="&lt;font face=&quot;宋体&quot; style=&quot;font-size: 24px;&quot;&gt;硬件&lt;/font&gt;&lt;span style=&quot;font-size: 24px; font-family: 宋体; background-color: transparent; color: light-dark(rgb(0, 0, 0), rgb(255, 255, 255));&quot;&gt;唤醒&lt;/span&gt;&lt;div&gt;&lt;span style=&quot;font-size: 24px; font-family: 宋体; background-color: transparent; color: light-dark(rgb(0, 0, 0), rgb(255, 255, 255));&quot;&gt;任务\(next\)&lt;/span&gt;&lt;/div&gt;" style="rounded=0;whiteSpace=wrap;html=1;strokeWidth=2;" parent="1" vertex="1">
          <mxGeometry x="280" y="980" width="120" height="60" as="geometry" />
        </mxCell>
        <mxCell id="61rVummgE9tPWi6S5vcb-57" value="&lt;span style=&quot;color: rgb(0, 0, 0); font-size: 24px; font-style: normal; font-variant-ligatures: normal; font-variant-caps: normal; font-weight: 400; letter-spacing: normal; orphans: 2; text-align: center; text-indent: 0px; text-transform: none; widows: 2; word-spacing: 0px; -webkit-text-stroke-width: 0px; white-space: nowrap; background-color: rgb(251, 251, 251); text-decoration-thickness: initial; text-decoration-style: initial; text-decoration-color: initial; float: none; display: inline !important;&quot;&gt;&lt;font face=&quot;宋体&quot;&gt;前一个任务&lt;/font&gt;&lt;/span&gt;" style="text;whiteSpace=wrap;html=1;strokeColor=none;" parent="1" vertex="1">
          <mxGeometry x="1210" y="825" width="130" height="40" as="geometry" />
        </mxCell>
        <mxCell id="61rVummgE9tPWi6S5vcb-59" value="&lt;span style=&quot;color: rgb(0, 0, 0); font-size: 24px; font-style: normal; font-variant-ligatures: normal; font-variant-caps: normal; font-weight: 400; letter-spacing: normal; orphans: 2; text-align: center; text-indent: 0px; text-transform: none; widows: 2; word-spacing: 0px; -webkit-text-stroke-width: 0px; white-space: nowrap; background-color: rgb(251, 251, 251); text-decoration-thickness: initial; text-decoration-style: initial; text-decoration-color: initial; float: none; display: inline !important;&quot;&gt;&lt;font face=&quot;宋体&quot;&gt;被唤醒任务&lt;/font&gt;&lt;/span&gt;" style="text;whiteSpace=wrap;html=1;strokeColor=none;" parent="1" vertex="1">
          <mxGeometry x="1210" y="875" width="130" height="40" as="geometry" />
        </mxCell>
        <mxCell id="61rVummgE9tPWi6S5vcb-60" value="&lt;span style=&quot;font-family: 宋体; font-size: 24px;&quot;&gt;\(prev\)&lt;/span&gt;" style="rounded=0;whiteSpace=wrap;html=1;strokeWidth=2;strokeColor=none;fillColor=none;" parent="1" vertex="1">
          <mxGeometry x="1120" y="825" width="70" height="40" as="geometry" />
        </mxCell>
        <mxCell id="61rVummgE9tPWi6S5vcb-61" value="&lt;span style=&quot;font-family: 宋体; font-size: 24px;&quot;&gt;\(next\)&lt;/span&gt;" style="rounded=0;whiteSpace=wrap;html=1;strokeWidth=2;strokeColor=none;fillColor=none;" parent="1" vertex="1">
          <mxGeometry x="1120" y="875" width="70" height="40" as="geometry" />
        </mxCell>
        <mxCell id="61rVummgE9tPWi6S5vcb-62" value="" style="rounded=0;whiteSpace=wrap;html=1;strokeWidth=2;fillColor=#666666;strokeColor=none;" parent="1" vertex="1">
          <mxGeometry x="1120" y="925" width="70" height="40" as="geometry" />
        </mxCell>
        <mxCell id="61rVummgE9tPWi6S5vcb-63" value="&lt;span style=&quot;color: rgb(0, 0, 0); font-size: 24px; font-style: normal; font-variant-ligatures: normal; font-variant-caps: normal; font-weight: 400; letter-spacing: normal; orphans: 2; text-align: center; text-indent: 0px; text-transform: none; widows: 2; word-spacing: 0px; -webkit-text-stroke-width: 0px; white-space: nowrap; background-color: rgb(251, 251, 251); text-decoration-thickness: initial; text-decoration-style: initial; text-decoration-color: initial; float: none; display: inline !important;&quot;&gt;&lt;font face=&quot;宋体&quot;&gt;从队列中取出任务&lt;/font&gt;&lt;/span&gt;&lt;div&gt;&lt;span style=&quot;color: rgb(0, 0, 0); font-size: 24px; font-style: normal; font-variant-ligatures: normal; font-variant-caps: normal; font-weight: 400; letter-spacing: normal; orphans: 2; text-align: center; text-indent: 0px; text-transform: none; widows: 2; word-spacing: 0px; -webkit-text-stroke-width: 0px; white-space: nowrap; background-color: rgb(251, 251, 251); text-decoration-thickness: initial; text-decoration-style: initial; text-decoration-color: initial; float: none; display: inline !important;&quot;&gt;&lt;font face=&quot;宋体&quot;&gt;并恢复任务上下文&lt;/font&gt;&lt;/span&gt;&lt;/div&gt;" style="text;whiteSpace=wrap;html=1;strokeColor=none;" parent="1" vertex="1">
          <mxGeometry x="1210" y="925" width="200" height="70" as="geometry" />
        </mxCell>
        <mxCell id="61rVummgE9tPWi6S5vcb-64" value="&lt;font style=&quot;font-size: 24px;&quot; face=&quot;Times New Roman&quot;&gt;(a)&lt;/font&gt;" style="text;html=1;align=center;verticalAlign=middle;whiteSpace=wrap;rounded=0;" parent="1" vertex="1">
          <mxGeometry x="160" y="150" width="60" height="30" as="geometry" />
        </mxCell>
        <mxCell id="61rVummgE9tPWi6S5vcb-65" value="&lt;font style=&quot;font-size: 24px;&quot; face=&quot;Times New Roman&quot;&gt;(b)&lt;/font&gt;" style="text;html=1;align=center;verticalAlign=middle;whiteSpace=wrap;rounded=0;" parent="1" vertex="1">
          <mxGeometry x="160" y="350" width="60" height="30" as="geometry" />
        </mxCell>
        <mxCell id="61rVummgE9tPWi6S5vcb-66" value="&lt;font style=&quot;font-size: 24px;&quot; face=&quot;Times New Roman&quot;&gt;(c)&lt;/font&gt;" style="text;html=1;align=center;verticalAlign=middle;whiteSpace=wrap;rounded=0;" parent="1" vertex="1">
          <mxGeometry x="160" y="550" width="60" height="30" as="geometry" />
        </mxCell>
        <mxCell id="61rVummgE9tPWi6S5vcb-67" value="&lt;font style=&quot;font-size: 24px;&quot; face=&quot;Times New Roman&quot;&gt;(d)&lt;/font&gt;" style="text;html=1;align=center;verticalAlign=middle;whiteSpace=wrap;rounded=0;" parent="1" vertex="1">
          <mxGeometry x="160" y="750" width="60" height="30" as="geometry" />
        </mxCell>
      </root>
    </mxGraphModel>
  </diagram>
</mxfile>
